<svg version="1.1" xmlns="http://www.w3.org/2000/svg" viewBox="0 0 172 172">
    <path fill="currentColor"
          d="M134.0649,27.83113c-1.60216,-1.57632 -3.25601,-3.20433 -4.88401,-4.83233c-1.65385,-1.62801 -3.25601,-3.28185 -4.85817,-4.90986c-11.31851,-11.55108 -18.0631,-18.08894 -25.09195,-18.08894h-52.92308c-14.57452,0 -26.46154,11.88702 -26.46154,26.46154v119.07692c0,14.57452 11.88702,26.46154 26.46154,26.46154h79.38462c14.57452,0 26.46154,-11.88702 26.46154,-26.46154v-92.61538c0,-7.02885 -6.53786,-13.77344 -18.08894,-25.09195zM138.92308,145.53846c0,7.3131 -5.91767,13.23077 -13.23077,13.23077h-79.38462c-7.3131,0 -13.23077,-5.91767 -13.23077,-13.23077v-119.07692c0,-7.3131 5.91767,-13.23077 13.23077,-13.23077l48.21996,-0.02584c4.78065,1.21454 4.70312,7.08053 4.70312,12.94651v20.15625c0,3.64363 2.97176,6.61538 6.61538,6.61538h19.84615c6.58954,0 13.23077,0.02584 13.23077,6.61538z">
    </path>
</svg>
