<svg version="1.1" xmlns="http://www.w3.org/2000/svg" viewBox="0 0 172 172">
    <path fill="currentColor"
          d="M19.84615,13.23077c-10.95673,0 -19.84615,8.88942 -19.84615,19.84615v112.46154c0,10.95673 8.88942,19.84615 19.84615,19.84615h132.30769c10.95673,0 19.84615,-8.88942 19.84615,-19.84615v-92.61538c0,-10.95673 -8.88942,-19.84615 -19.84615,-19.84615h-79.38462c0,-10.95673 -8.88942,-19.84615 -19.84615,-19.84615zM19.84615,46.30769h132.30769c3.64363,0 6.61538,2.97176 6.61538,6.61538v92.61538c0,3.64363 -2.97176,6.61538 -6.61538,6.61538h-132.30769c-3.64363,0 -6.61538,-2.97176 -6.61538,-6.61538v-92.61538c0,-3.64363 2.97176,-6.61538 6.61538,-6.61538z">
    </path>
</svg>
